#!OML:ASF H:\MichaelJackson\Top Level 1\Subject 1\Session 1\male.ASF
:FULLY-SPECIFIED
:DEGREES
611
root 5.62333 16.6826 -3.79565 0.139373 52.1564 -7.73763
lowerback 3.66272 -3.36933 -4.79193
upperback 0.0759784 -4.67059 1.09482
thorax -1.49755 -2.29644 4.01848
lowerneck -8.45995 -9.29004 -0.431546
upperneck 15.0405 -13.2244 4.25344
head 6.27993 -6.09092 0.346521
rclavicle -2.0773e-014 -9.54166e-015
rhumerus 22.5 3.42752 -72.2578
rradius 117.956
rwrist -58.9548
rhand -27.3095 -22.715
rfingers 7.12502
rthumb -0.719022 -772.694
lclavicle -2.0773e-014 -9.54166e-015
lhumerus -22.2918 -42.1429 92.9717
lradius 56.6807
lwrist 20.3356
lhand -10.4848 0.19148
lfingers 7.12502
lthumb 15.5167 29.5889
rfemur -53.4325 -17.9312 27.838
rtibia 63.7579
rfoot 8.55871 30.1743
rtoes -3.69571
lfemur -17.8818 24.7337 -22.3062
ltibia 40.2429
lfoot -33.0329 25.6371
ltoes 19.6075
612
root 5.63066 16.7024 -3.81708 0.648233 50.3286 -7.27898
lowerback 3.58629 -3.45858 -4.60486
upperback -0.039636 -4.78064 1.11596
thorax -1.57609 -2.34852 3.93935
lowerneck -8.65967 -9.05298 -0.251263
upperneck 15.1703 -12.8765 3.8616
head 6.30733 -5.93704 0.217248
rclavicle 4.11484e-014 7.95139e-015
rhumerus 22.1949 3.01416 -72.0852
rradius 116.579
rwrist -59.0479
rhand -27.8055 -23.4518
rfingers 7.12502
rthumb -1.19804 -773.428
lclavicle 4.11484e-014 7.95139e-015
lhumerus -22.3235 -42.8137 93.5178
lradius 57.2261
lwrist 20.1416
lhand -10.5036 0.00357284
lfingers 7.12502
lthumb 15.4986 29.4024
rfemur -53.6881 -18.0219 27.4215
rtibia 65.5881
rfoot 9.15365 30.1579
rtoes -4.02925
lfemur -17.6594 25.0166 -22.6507
ltibia 39.7485
lfoot -33.5847 26.0844
ltoes 21.5733
613
root 5.64146 16.7229 -3.83511 1.13695 48.5475 -6.8464
lowerback 3.47698 -3.53558 -4.42766
upperback -0.15074 -4.87304 1.14812
thorax -1.63209 -2.39265 3.87392
lowerneck -8.85081 -8.82267 -0.0888888
upperneck 15.276 -12.5386 3.50145
head 6.33117 -5.78781 0.100142
rclavicle -1.49089e-015 -1.11319e-014
rhumerus 21.8352 2.64521 -71.8757
rradius 115.206
rwrist -59.0494
rhand -28.317 -24.2829
rfingers 7.12502
rthumb -1.69207 -774.256
lclavicle -1.49089e-015 -1.11319e-014
lhumerus -22.35 -43.4421 94.0688
lradius 57.8242
lwrist 20.0741
lhand -10.6473 -0.213335
lfingers 7.12502
lthumb 15.3602 29.1961
rfemur -53.8182 -18.0982 26.8992
rtibia 67.2008
rfoot 9.77215 30.0753
rtoes -4.83872
lfemur -17.4206 25.319 -22.9919
ltibia 39.2267
lfoot -34.1396 26.4317
ltoes 23.4196
614
root 5.65499 16.7441 -3.84948 1.61057 46.8308 -6.44438
lowerback 3.33151 -3.60343 -4.2603
upperback -0.258391 -4.95198 1.19142
thorax -1.66415 -2.43086 3.82208
lowerneck -9.03005 -8.60097 0.0574109
upperneck 15.3555 -12.2149 3.18145
head 6.35042 -5.64444 -0.00252738
rclavicle -3.37934e-015 -1.03368e-014
rhumerus 21.405 2.31596 -71.6228
rradius 113.851
rwrist -58.9771
rhand -28.7727 -25.0797
rfingers 7.12502
rthumb -2.13217 -775.049
lclavicle -3.37934e-015 -1.03368e-014
lhumerus -22.3635 -44.0336 94.6221
lradius 58.4579
lwrist 20.1039
lhand -10.8633 -0.453765
lfingers 7.12502
lthumb 15.1522 28.9715
rfemur -53.8287 -18.178 26.2957
rtibia 68.5683
rfoot 10.318 29.8998
rtoes -6.11783
lfemur -17.1783 25.5947 -23.3247
ltibia 38.687
lfoot -34.6781 26.6989
ltoes 25.1163
615
root 5.67043 16.7656 -3.86006 2.07236 45.1936 -6.07924
lowerback 3.15042 -3.66432 -4.09967
upperback -0.365114 -5.02054 1.24604
thorax -1.67497 -2.46451 3.78243
lowerneck -9.19515 -8.39062 0.190319
upperneck 15.409 -11.9104 2.90627
head 6.3646 -5.50873 -0.0899693
rclavicle 5.82439e-014 5.56597e-015
rhumerus 20.8848 2.02331 -71.3191
rradius 112.525
rwrist -58.8554
rhand -29.1434 -25.7499
rfingers 7.12502
rthumb -2.49024 -775.715
lclavicle 5.82439e-014 5.56597e-015
lhumerus -22.3613 -44.5945 95.1785
lradius 59.109
lwrist 20.1918
lhand -11.1032 -0.708491
lfingers 7.12502
lthumb 14.921 28.7341
rfemur -53.7265 -18.2724 25.6368
rtibia 69.674
rfoot 10.7003 29.5934
rtoes -7.84186
lfemur -16.9443 25.7941 -23.6401
ltibia 38.1434
lfoot -35.1818 26.9025
ltoes 26.6383
616
root 5.68696 16.7871 -3.86685 2.52351 43.6461 -5.75799
lowerback 2.93735 -3.71926 -3.94293
upperback -0.4733 -5.08028 1.31416
thorax -1.66885 -2.4942 3.75597
lowerneck -9.34667 -8.19475 0.311368
upperneck 15.439 -11.6298 2.67532
head 6.3741 -5.38268 -0.162997
rclavicle 1.06549e-013 1.35174e-014
rhumerus 20.2566 1.76714 -70.9559
rradius 111.242
rwrist -58.7132
rhand -29.4344 -26.2584
rfingers 7.12502
rthumb -2.77121 -776.22
lclavicle 1.06549e-013 1.35174e-014
lhumerus -22.3425 -45.1294 95.7427
lradius 59.76
lwrist 20.2975
lhand -11.3224 -0.967928
lfingers 7.12502
lthumb 14.7099 28.4902
rfemur -53.5182 -18.3832 24.9477
rtibia 70.51
rfoot 10.8519 29.112
rtoes -9.95358
lfemur -16.7275 25.8711 -23.9249
ltibia 37.6119
lfoot -35.6329 27.0513
ltoes 27.9651
617
root 5.7038 16.8082 -3.86989 2.96174 42.1909 -5.48836
lowerback 2.69943 -3.76662 -3.786
upperback -0.585043 -5.12934 1.39705
thorax -1.65224 -2.51879 3.74232
lowerneck -9.48653 -8.01751 0.424114
upperneck 15.4494 -11.379 2.48474
head 6.37978 -5.26899 -0.223958
rclavicle 2.2413e-014 1.98785e-014
rhumerus 19.5016 1.54748 -70.5266
rradius 110.013
rwrist -58.5705
rhand -29.668 -26.6242
rfingers 7.12502
rthumb -2.99681 -776.583
lclavicle 2.2413e-014 1.98785e-014
lhumerus -22.3131 -45.6486 96.3219
lradius 60.3983
lwrist 20.388
lhand -11.4946 -1.21687
lfingers 7.12502
lthumb 14.544 28.2533
rfemur -53.2075 -18.5019 24.2519
rtibia 71.0755
rfoot 10.7592 28.4055
rtoes -12.244
lfemur -16.5296 25.7905 -24.1604
ltibia 37.1083
lfoot -36.0114 27.1441
ltoes 29.0772
618
root 5.72027 16.8286 -3.86928 3.3833 40.8234 -5.27673
lowerback 2.44645 -3.80417 -3.62746
upperback -0.701372 -5.16513 1.49767
thorax -1.6317 -2.53677 3.74452
lowerneck -9.61754 -7.86161 0.527314
upperneck 15.4432 -11.161 2.33062
head 6.38254 -5.16935 -0.274277
rclavicle 4.18939e-014 -7.95139e-016
rhumerus 18.6073 1.37066 -70.0246
rradius 108.845
rwrist -58.4335
rhand -29.8696 -26.8942
rfingers 7.12502
rthumb -3.19156 -776.85
lclavicle 4.18939e-014 -7.95139e-016
lhumerus -22.2813 -46.1601 96.9245
lradius 61.0166
lwrist 20.4438
lhand -11.61 -1.43874
lfingers 7.12502
lthumb 14.4328 28.0394
rfemur -52.7976 -18.6114 23.5701
rtibia 71.3753
rfoot 10.441 27.4325
rtoes -14.5301
lfemur -16.3459 25.5311 -24.326
ltibia 36.645
lfoot -36.293 27.1699
ltoes 29.9549
619
root 5.73577 16.8478 -3.8651 3.78496 39.5326 -5.12555
lowerback 2.18755 -3.82739 -3.4676
upperback -0.822071 -5.182 1.61585
thorax -1.61255 -2.54516 3.76322
lowerneck -9.7402 -7.73017 0.621456
upperneck 15.4209 -10.9798 2.21051
head 6.38225 -5.0858 -0.315113
rclavicle -7.7526e-015 3.45885e-014
rhumerus 17.5624 1.24137 -69.4488
rradius 107.74
rwrist -58.2868
rhand -30.0518 -27.0848
rfingers 7.12502
rthumb -3.36749 -777.038
lclavicle -7.7526e-015 3.45885e-014
lhumerus -22.2592 -46.6815 97.5576
lradius 61.6147
lwrist 20.4622
lhand -11.6738 -1.62059
lfingers 7.12502
lthumb 14.3713 27.8619
rfemur -52.2933 -18.6906 22.9176
rtibia 71.4201
rfoot 9.97291 26.1598
rtoes -16.5411
lfemur -16.1656 25.0886 -24.4029
ltibia 36.229
lfoot -36.4509 27.1079
ltoes 30.5789
